<?xml version="1.0" standalone="yes"?>
<svg xmlns="http://www.w3.org/2000/svg" width="514" height="210">
<path style="fill:#010101; stroke:none;" d="M0 0L0 210L84 210L84 156L93 158L94 158C111.072 149.785 118 163.186 118 178C118 184.782 118.408 192.027 111.957 196.258C107.038 199.484 99.4108 198.005 94 197L93 210L229 210L242 196C232.379 193.144 227.913 165.241 226 156L236 156L244 186C250.383 175.549 246.246 156.056 262 156C260.047 170.492 254.533 199.444 243 209L243 210L514 210L514 0L0 0z"/>
<path style="fill:#2b305a; stroke:none;" d="M248 1L248 2L262 2L248 1M240 2L228 6L228 7L241 3L240 2M242 2L242 3L246 3L242 2z"/>
<path style="fill:#5e62f2; stroke:none;" d="M246 2.42824C232.004 4.43327 209.274 11.5947 202.028 25.0895C199.624 29.5666 201 37.0584 201 42C201 60.1983 205.048 78.224 214.453 94C221.326 105.529 231.155 115.062 242 122.845C245.612 125.437 251.249 130.058 256 129.369C264.103 128.194 273.415 119.432 279 113.985C297.082 96.3531 308.752 73.698 309 48C309.065 41.2494 311.237 31.2802 307.972 25.0394C298.384 6.70961 264.449 -0.214828 246 2.42824z"/>
<path style="fill:#2b305a; stroke:none;" d="M263 2L263 3L277 5L263 2M277 5L277 6L280 6L277 5M280.667 6.33333L281.333 6.66667L280.667 6.33333M225.667 7.33333L226.333 7.66667L225.667 7.33333M283.667 7.33333L284.333 7.66667L283.667 7.33333M223.667 8.33333L224.333 8.66667L223.667 8.33333M285.667 8.33333L286.333 8.66667L285.667 8.33333M221.667 9.33333L222.333 9.66667L221.667 9.33333M287.667 9.33333L288.333 9.66667L287.667 9.33333M219.667 10.3333L220.333 10.6667L219.667 10.3333M289.667 10.3333L290.333 10.6667L289.667 10.3333M218 11L219 12L218 11M291 11L294 13L291 11M216.667 12.3333L217.333 12.6667L216.667 12.3333M214.667 13.3333L215.333 13.6667L214.667 13.3333M294.667 13.3333L295.333 13.6667L294.667 13.3333M213 14L214 15L213 14M296 14L297 15L296 14M212 15L213 16L212 15M297 15L300 17L297 15M210.667 16.3333L211.333 16.6667L210.667 16.3333M209 17L210 18L209 17M300 17L301 18L300 17M208 18L209 19L208 18M301 18L305 21L301 18M207 19L208 20L207 19M204 22L207 20L204 22M305 21L306 22L305 21M203 22L204 23L203 22M306 22L307 23L306 22M202 23L203 24L202 23M307 23L308 24L307 23M201 24L202 25L201 24M308 24L309 25L308 24M200 25L200 55L201 55L200 25M309 25L308 62L309 62C309.484 50.7289 314.605 35.5425 309 25z"/>
<path style="fill:#9a9ec9; stroke:none;" d="M230 32L230 33L255 33L230 32M226 33L227 34L226 33z"/>
<path style="fill:#f3f5fa; stroke:none;" d="M220 46C229.347 46.0774 238.659 47.885 248 47.9961C254.1 48.0687 259.945 47.5065 266 47.0895C270.519 46.7783 286.218 48.2104 288.932 44.3966C292.313 39.6459 284.858 34.1368 281 33.3441C269.216 30.923 255.026 33 243 33C237.778 33 230.904 31.856 226.044 34.0895C221.152 36.3375 220.223 41.1341 220 46z"/>
<path style="fill:#9a9ec9; stroke:none;" d="M282.667 33.3333L283.333 33.6667L282.667 33.3333M224 34L225 35L224 34M285 34L286 35L285 34M223 35L224 36L223 35M286 35L287 36L286 35M287 36L288 37L287 36M221 37L222 38L221 37M288 37L289 38L288 37M220.333 39.6667L220.667 40.3333L220.333 39.6667M289.333 39.6667L289.667 40.3333L289.333 39.6667M219 43L219 46L220 46L219 43M290 43L289 46L290 43M222 46L222 47L228 47L222 46M275 46L275 47L287 47L275 46M233 47L233 48L242 48L233 47M262 47L262 48L274 48L262 47M248 48L248 49L257 49L248 48M219 51L219 63L220 63C220 58.8818 218.758 52.1896 222 53L222 52L219 51M289 51L290 63L291 63L289 51z"/>
<path style="fill:#f3f5fa; stroke:none;" d="M220 52C220 70.9223 228.676 97.0387 251 99L249 90L261 90L259 99C281.124 95.6838 290 71.5863 290 52L289 52C286.741 63.611 276.268 74.2967 264.185 65.1458C259.328 61.4673 259.215 54.8443 253 53C248.943 62.8723 238.053 74.489 227.109 64.7215C223.139 61.1782 223.33 55.8254 220 52z"/>
<path style="fill:#9a9ec9; stroke:none;" d="M254.667 52.3333L255.333 52.6667L254.667 52.3333M256 53L257 54L256 53M288.333 53.6667L288.667 54.3333L288.333 53.6667M222.333 54.6667L222.667 55.3333L222.333 54.6667M252 54L253 55L252 54M257 54L258 55L257 54z"/>
<path style="fill:#2b305a; stroke:none;" d="M201 55L201 61L202 61L201 55z"/>
<path style="fill:#9a9ec9; stroke:none;" d="M251 56L252 57L251 56M258 56L259 57L258 56M287 56L287 60L288 60L287 56M223 58L223 61L224 61L223 58M250 58L251 59L250 58M259.333 58.6667L259.667 59.3333L259.333 58.6667M249.333 60.6667L249.667 61.3333L249.333 60.6667M260.333 60.6667L260.667 61.3333L260.333 60.6667M286.333 60.6667L286.667 61.3333L286.333 60.6667z"/>
<path style="fill:#2b305a; stroke:none;" d="M202 61L202 65L203 65L202 61z"/>
<path style="fill:#9a9ec9; stroke:none;" d="M224 62L225 63L224 62M248 62L249 63L248 62M261 62L262 63L261 62z"/>
<path style="fill:#2b305a; stroke:none;" d="M307 62L307 66L308 66L307 62z"/>
<path style="fill:#9a9ec9; stroke:none;" d="M247 63L248 64L247 63M262 63L262 65L264 65L262 63M285 63L286 64L285 63M284 64L285 65L284 64M289 64L289 67L290 67L289 64M220.333 65.6667L220.667 66.3333L220.333 65.6667M227 65L228 66L227 65M245 65L246 66L245 65M264 65L265 66L264 65M283 65L284 66L283 65z"/>
<path style="fill:#2b305a; stroke:none;" d="M203 66L203 69L204 69L203 66z"/>
<path style="fill:#9a9ec9; stroke:none;" d="M228 66L229 67L228 66M243 66L244 67L243 66M265.667 66.3333L266.333 66.6667L265.667 66.3333M281.667 66.3333L282.333 66.6667L281.667 66.3333M231 67L231 68L242 68L231 67M268 67L268 68L271 68L268 67M277 67L277 68L280 68L277 67z"/>
<path style="fill:#2b305a; stroke:none;" d="M306 67L306 71L307 71L306 67z"/>
<path style="fill:#9a9ec9; stroke:none;" d="M221.333 68.6667L221.667 69.3333L221.333 68.6667M288.333 68.6667L288.667 69.3333L288.333 68.6667z"/>
<path style="fill:#2b305a; stroke:none;" d="M204 70L205 76L206 76L204 70z"/>
<path style="fill:#9a9ec9; stroke:none;" d="M222.333 71.6667L222.667 72.3333L222.333 71.6667M287.333 71.6667L287.667 72.3333L287.333 71.6667z"/>
<path style="fill:#2b305a; stroke:none;" d="M305 71L305 74L306 74L305 71z"/>
<path style="fill:#9a9ec9; stroke:none;" d="M286.333 73.6667L286.667 74.3333L286.333 73.6667M223 74L224 75L223 74z"/>
<path style="fill:#2b305a; stroke:none;" d="M304 74L304 77L305 77L304 74z"/>
<path style="fill:#9a9ec9; stroke:none;" d="M254 75L254 76L258 76L254 75M266 77L266 78L275 77L270 82L270 83L277 76L266 77z"/>
<path style="fill:#2b305a; stroke:none;" d="M206 76L206 79L207 79L206 76z"/>
<path style="fill:#9a9ec9; stroke:none;" d="M224 76L225 77L224 76M234 76L235 79L236 79L236 76L234 76M247 76L247 77L251 77L247 76z"/>
<path style="fill:#5e62f2; stroke:none;" d="M235 77C238.769 83.868 250.515 86.3166 254 78C260.142 84.166 270.227 85.6972 275 77L255 76.054L235 77z"/>
<path style="fill:#9a9ec9; stroke:none;" d="M260 76L260 77L265 77L260 76z"/>
<path style="fill:#5e62f2; stroke:none;" d="M275 76L276 77L275 76z"/>
<path style="fill:#9a9ec9; stroke:none;" d="M285 76L286 77L285 76M237 77L238 78L237 77M241 77L241 78L245 78L241 77z"/>
<path style="fill:#2b305a; stroke:none;" d="M303 77L303 80L304 80L303 77z"/>
<path style="fill:#9a9ec9; stroke:none;" d="M225 78L226 79L225 78M254 78L255 79L254 78M284 78L285 79L284 78z"/>
<path style="fill:#2b305a; stroke:none;" d="M207.333 79.6667L207.667 80.3333L207.333 79.6667z"/>
<path style="fill:#9a9ec9; stroke:none;" d="M255 79L256 80L255 79M226 80L227 81L226 80M253 80L254 81L253 80M256 80L257 81L256 80M283 80L284 81L283 80z"/>
<path style="fill:#2b305a; stroke:none;" d="M302.333 80.6667L302.667 81.3333L302.333 80.6667z"/>
<path style="fill:#9a9ec9; stroke:none;" d="M252 81L253 82L252 81M257.333 81.6667L257.667 82.3333L257.333 81.6667z"/>
<path style="fill:#2b305a; stroke:none;" d="M208.333 82.6667L208.667 83.3333L208.333 82.6667z"/>
<path style="fill:#9a9ec9; stroke:none;" d="M227 82L228 83L227 82M239 82L240 83L239 82M282 82L283 83L282 82z"/>
<path style="fill:#2b305a; stroke:none;" d="M301 82L300 87L301 87L301 82z"/>
<path style="fill:#9a9ec9; stroke:none;" d="M228 83L229 84L228 83M242 83L242 84L251 84L242 83M258 83L258 84L269 84L258 83M281 83L282 84L281 83z"/>
<path style="fill:#2b305a; stroke:none;" d="M209.333 84.6667L209.667 85.3333L209.333 84.6667z"/>
<path style="fill:#9a9ec9; stroke:none;" d="M229 85L230 86L229 85M280 85L281 86L280 85z"/>
<path style="fill:#2b305a; stroke:none;" d="M210.333 86.6667L210.667 87.3333L210.333 86.6667z"/>
<path style="fill:#9a9ec9; stroke:none;" d="M230 86L231 87L230 86M279 86L280 87L279 86M278 87L279 88L278 87z"/>
<path style="fill:#2b305a; stroke:none;" d="M299.333 87.6667L299.667 88.3333L299.333 87.6667M211.333 88.6667L211.667 89.3333L211.333 88.6667z"/>
<path style="fill:#9a9ec9; stroke:none;" d="M232 89L233 90L232 89M277 89L278 90L277 89z"/>
<path style="fill:#2b305a; stroke:none;" d="M298.333 89.6667L298.667 90.3333L298.333 89.6667M212.333 90.6667L212.667 91.3333L212.333 90.6667z"/>
<path style="fill:#9a9ec9; stroke:none;" d="M233 90L234 91L233 90M249 93L250 93L255 91C252.238 89.4085 249.714 89.6685 249 93M260 90L261 91L260 90M276 90L277 91L276 90M234 91L235 92L234 91M275 91L276 92L275 91z"/>
<path style="fill:#2b305a; stroke:none;" d="M297 91L298 92L297 91M213.333 92.6667L213.667 93.3333L213.333 92.6667z"/>
<path style="fill:#9a9ec9; stroke:none;" d="M235 92L236 93L235 92M260.333 92.6667L260.667 93.3333L260.333 92.6667M273.667 92.3333L274.333 92.6667L273.667 92.3333z"/>
<path style="fill:#2b305a; stroke:none;" d="M296.333 92.6667L296.667 93.3333L296.333 92.6667z"/>
<path style="fill:#9a9ec9; stroke:none;" d="M272 93L273 94L272 93z"/>
<path style="fill:#2b305a; stroke:none;" d="M214 94L215 95L214 94z"/>
<path style="fill:#9a9ec9; stroke:none;" d="M238 94L239 95L238 94M250.333 94.6667L250.667 95.3333L250.333 94.6667M271 94L272 95L271 94z"/>
<path style="fill:#2b305a; stroke:none;" d="M295.333 94.6667L295.667 95.3333L295.333 94.6667M215.333 95.6667L215.667 96.3333L215.333 95.6667z"/>
<path style="fill:#9a9ec9; stroke:none;" d="M239 95L240 96L239 95M259.333 95.6667L259.667 96.3333L259.333 95.6667M269.667 95.3333L270.333 95.6667L269.667 95.3333M241 96L242 97L241 96M267.667 96.3333L268.333 96.6667L267.667 96.3333z"/>
<path style="fill:#2b305a; stroke:none;" d="M294 96L295 97L294 96M216 97L217 98L216 97z"/>
<path style="fill:#9a9ec9; stroke:none;" d="M243 97L244 98L243 97M265.667 97.3333L266.333 97.6667L265.667 97.3333z"/>
<path style="fill:#2b305a; stroke:none;" d="M293.333 97.6667L293.667 98.3333L293.333 97.6667M217.333 98.6667L217.667 99.3333L217.333 98.6667z"/>
<path style="fill:#9a9ec9; stroke:none;" d="M245.667 98.3333L246.333 98.6667L245.667 98.3333M251 98L248 99L248 100L251 98M258 98L261 100L261 99L258 98M262 98L262 99L265 99L262 98z"/>
<path style="fill:#2b305a; stroke:none;" d="M292 99L293 100L292 99M218 100L219 101L218 100M291 100L290 103L291 100M219 101L221 104L219 101M289 103L290 104L289 103M221 104L222 105L221 104M288 104L289 105L288 104M222 105L223 106L222 105M287 105L276 117C280.346 114.973 287.11 110.195 287 105M223 106L224 107L223 106M224 107L225 108L224 107M225 108L226 109L225 108M226 109L230 113L226 109M230 113L231 114L230 113M231 114L232 115L231 114M232 115L233 116L232 115M233 116L234 117L233 116M234 117L235 118L234 117M275 117L276 118L275 117M235 118L238 120L235 118M274 118L275 119L274 118M272.667 119.333L273.333 119.667L272.667 119.333M238 120L239 121L238 120M271 120L272 121L271 120M239.667 121.333L240.333 121.667L239.667 121.333M270 121L271 122L270 121M241 122L242 123L241 122M268.667 122.333L269.333 122.667L268.667 122.333M242 123L243 124L242 123M267 123L268 124L267 123M243.667 124.333L244.333 124.667L243.667 124.333M265.667 124.333L266.333 124.667L265.667 124.333M245 125L246 126L245 125M264 125L265 126L264 125M247 126L248 127L247 126M262.667 126.333L263.333 126.667L262.667 126.333M248.667 127.333L249.333 127.667L248.667 127.333M260.667 127.333L261.333 127.667L260.667 127.333M250.667 128.333L251.333 128.667L250.667 128.333M257 130L260 128L257 130M252 129L253 130L252 129M254 130L254 131L257 131L254 130M280 140L280 141L289 141L280 157L289 157L289 163L280 163L279 198L280 198L281 164C287.636 163.977 289.918 162.932 290 156L281 156C281.376 151.071 297.466 140.814 284.04 140.019C282.706 139.94 281.335 140.001 280 140M272 148L273 148L279 142C274.994 141.459 273.207 144.534 272 148z"/>
<path style="fill:#5e62f2; stroke:none;" d="M265 157L265 163C276.669 163.89 272 189.135 272 198C285.181 197.844 280 172.961 280 163L289 163L289 157L280 157L289 141C283.65 141.001 278.189 140.518 274.434 145.109C270.233 150.244 273.353 156.363 265 157z"/>
<path style="fill:#2b305a; stroke:none;" d="M406 156C398.768 154.944 398.767 163.436 406 164L406 189L407 189C407 181.625 410.762 163.761 401 163L401 157C407.364 156.504 406.996 152.472 407 147L415 147C415.007 156.548 417.638 156.008 426 158C422.892 154.838 420.184 155.238 416 156C415.99 143.613 406.01 143.613 406 156z"/>
<path style="fill:#5e62f2; stroke:none;" d="M407 147C406.981 152.251 406.872 156.064 401 157L401 163C411.478 164.671 405.623 181.382 407.394 188.996C409.334 197.333 417.903 197.98 425 198L426 192C422.716 190.99 418.832 190.835 416.603 187.852C410.141 179.203 414.028 163.039 425 163L425 157C417.142 156.972 415.028 154.858 415 147L407 147z"/>
<path style="fill:#2b305a; stroke:none;" d="M271 150L271 156L272 156L271 150M265 156L265 157L271 157L265 156M296 198L295 157L303 160L316 157L316 163L309 163L309 164L317 164C316.905 155.937 311.906 153.08 305 158C290.525 145.513 294 180.27 294 187C294 190.707 293.045 195.418 296 198M322 163L323 163C329.994 153.614 348.921 154.035 353 166C354.414 160.592 348.727 156.834 344 155.684C335.934 153.723 325.861 154.921 322 163M363 198L364 198L363 157L371 160C373.633 158.552 375.95 157.302 379 157.058C400.98 155.298 395 183.409 395 198L396 198C396 187.895 398.92 172.457 395.258 163.004C392.047 154.717 379.424 152.741 373 158C369.793 155.235 363.803 153.415 362.314 159.062C359.744 168.809 360.165 188.41 363 198M84 156L85 157L84 156z"/>
<path style="fill:#5e62f2; stroke:none;" d="M85 156C80.4061 171.542 84 192.777 84 209L85 209L85 156z"/>
<path style="fill:#9a9ec9; stroke:none;" d="M86 156L86 157L92 160L95 159L86 156z"/>
<path style="fill:#2b305a; stroke:none;" d="M92 156L93 157L92 156M96.6667 156.333L97.3333 156.667L96.6667 156.333z"/>
<path style="fill:#5e62f2; stroke:none;" d="M98 156L99 157L98 156z"/>
<path style="fill:#9a9ec9; stroke:none;" d="M99 156L99 157L107 157L99 156z"/>
<path style="fill:#5e62f2; stroke:none;" d="M107.667 156.333L108.333 156.667L107.667 156.333z"/>
<path style="fill:#2b305a; stroke:none;" d="M109.667 156.333L110.333 156.667L109.667 156.333M126 156L127 157L126 156z"/>
<path style="fill:#9a9ec9; stroke:none;" d="M127 198L128 198L127 157L134 160L137 159C134.515 157.191 129.405 153.769 126.722 157.333C124.953 159.684 126 165.208 126 168C126 177.115 123.881 189.468 127 198z"/>
<path style="fill:#2b305a; stroke:none;" d="M134 156L135 157L134 156M138.667 156.333L139.333 156.667L138.667 156.333z"/>
<path style="fill:#5e62f2; stroke:none;" d="M140 156L141 157L140 156z"/>
<path style="fill:#9a9ec9; stroke:none;" d="M141 156L141 157L147 157L147 163L139 163C147.511 166.563 151.19 156.335 141 156z"/>
<path style="fill:#2b305a; stroke:none;" d="M147 156L148 157L147 156M160.667 156.333L161.333 156.667L160.667 156.333z"/>
<path style="fill:#5e62f2; stroke:none;" d="M162 156L163 157L162 156z"/>
<path style="fill:#9a9ec9; stroke:none;" d="M163 156L163 157L175 157L163 156z"/>
<path style="fill:#5e62f2; stroke:none;" d="M175 156L176 157L175 156z"/>
<path style="fill:#2b305a; stroke:none;" d="M176.667 156.333L177.333 156.667L176.667 156.333z"/>
<path style="fill:#5e62f2; stroke:none;" d="M191 156L192 157L191 156z"/>
<path style="fill:#9a9ec9; stroke:none;" d="M191 157L191 158L199 157L191 157z"/>
<path style="fill:#5e62f2; stroke:none;" d="M199 156L200 157L199 156z"/>
<path style="fill:#2b305a; stroke:none;" d="M200 156L201 157L200 156M213 156L214 157L213 156z"/>
<path style="fill:#5e62f2; stroke:none;" d="M214 156L213 158L214 156z"/>
<path style="fill:#9a9ec9; stroke:none;" d="M215 156L215 157L223 157L215 156z"/>
<path style="fill:#2b305a; stroke:none;" d="M223.333 156.667L223.667 157.333L223.333 156.667M226 156L226 159L227 159L226 156z"/>
<path style="fill:#5e62f2; stroke:none;" d="M227 156L228 157L227 156z"/>
<path style="fill:#9a9ec9; stroke:none;" d="M228 156L228 157L234 157L228 156z"/>
<path style="fill:#5e62f2; stroke:none;" d="M234 156L235 157L234 156z"/>
<path style="fill:#2b305a; stroke:none;" d="M235.333 156.667L235.667 157.333L235.333 156.667M253 156L252 159L253 159L253 156z"/>
<path style="fill:#9a9ec9; stroke:none;" d="M253 157L253 158L261 157L253 157z"/>
<path style="fill:#2b305a; stroke:none;" d="M261 156L262 157L261 156z"/>
<path style="fill:#f3f5fa; stroke:none;" d="M85 157L85 209L92 209L92 194C109.565 203.808 117 192.664 117 176C117 170.965 117.987 164.478 114.347 160.394C108.95 154.338 98.1542 156.907 92 160C91.2038 156.284 88.3627 157 85 157z"/>
<path style="fill:#2b305a; stroke:none;" d="M94 157L95 158L94 157z"/>
<path style="fill:#5e62f2; stroke:none;" d="M95 157L96 158L95 157z"/>
<path style="fill:#9a9ec9; stroke:none;" d="M96 157L97 158L96 157M110 157L111 158L110 157z"/>
<path style="fill:#5e62f2; stroke:none;" d="M111 157L112 158L111 157z"/>
<path style="fill:#2b305a; stroke:none;" d="M112 157L114 159L112 157z"/>
<path style="fill:#f3f5fa; stroke:none;" d="M127 157C127 167.999 126.925 179.001 127.001 190C127.019 192.582 127.71 200.451 132.401 196.953C134.939 195.061 134 189.724 134 187C134.001 175.49 131.975 163.136 147 163L147 157L134 160C133.204 156.284 130.363 157 127 157z"/>
<path style="fill:#5e62f2; stroke:none;" d="M137 157L138 158L137 157z"/>
<path style="fill:#9a9ec9; stroke:none;" d="M138 157L139 158L138 157z"/>
<path style="fill:#2b305a; stroke:none;" d="M158 157L159 158L158 157z"/>
<path style="fill:#9a9ec9; stroke:none;" d="M159 157L160 158L159 157z"/>
<path style="fill:#f3f5fa; stroke:none;" d="M160.005 157.742C151.98 160.861 153 170.012 153 177C153 192.273 160.978 203.267 177.96 196.437C186.02 193.195 185 184.176 185 177C185 162.019 176.69 151.257 160.005 157.742z"/>
<path style="fill:#9a9ec9; stroke:none;" d="M178 157L179 158L178 157z"/>
<path style="fill:#2b305a; stroke:none;" d="M179 157L180 158L179 157z"/>
<path style="fill:#f3f5fa; stroke:none;" d="M192 157L200.863 177L191 197C201.169 199.97 203.773 189.75 207 182C211.46 189.642 212.887 197.88 223 198L213.287 176.424L223 157C211.23 157.009 213.565 164.497 206 171C204.465 162.389 200.953 157.032 192 157z"/>
<path style="fill:#9a9ec9; stroke:none;" d="M200 157L201 158L200 157z"/>
<path style="fill:#f3f5fa; stroke:none;" d="M227 157L238 195L243 195C240.267 201.196 236.784 203.836 230 204L230 210L242.957 208.258L250.975 194L261 157C247.829 157.156 248.261 179.098 244 189L235 157L227 157z"/>
<path style="fill:#5e62f2; stroke:none;" d="M261.333 157.667L261.667 158.333L261.333 157.667z"/>
<path style="fill:#2b305a; stroke:none;" d="M264 157L264 160L265 160L264 157z"/>
<path style="fill:#5e62f2; stroke:none;" d="M295 157C295 168.629 294.507 180.378 295.019 191.995C295.164 195.288 298.467 200.791 301.972 196.396C310.592 185.587 292.776 163.497 316 163L316 157L303 160C302.146 156.013 298.511 157 295 157M328.015 157.742C320.793 160.59 321.002 169.553 321 176C320.994 191.1 328.675 203.679 345.999 196.852C354.737 193.408 354 184.833 354 177C354 161.592 344.719 151.155 328.015 157.742M363 157L363 173L363 184C363 186.333 365.309 206.005 370.397 195.682C373.962 188.448 364.546 159.736 380.995 163.474C397.066 167.125 376.153 197.777 395 198C395 182.877 401.264 156.624 380 157.005C376.255 157.072 374.017 157.83 371 160C370.146 156.013 366.511 157 363 157z"/>
<path style="fill:#2b305a; stroke:none;" d="M93 158L94 159L93 158z"/>
<path style="fill:#9a9ec9; stroke:none;" d="M112 158L113 159L112 158z"/>
<path style="fill:#2b305a; stroke:none;" d="M156 158L154 161L156 158z"/>
<path style="fill:#9a9ec9; stroke:none;" d="M157 158L158 159L157 158M180 158L184 162L180 158z"/>
<path style="fill:#2b305a; stroke:none;" d="M181 158L182 159L181 158M191 158L192 159L191 158M201 158L202 159L201 158z"/>
<path style="fill:#9a9ec9; stroke:none;" d="M213 158L214 159L213 158M222 158L223 159L222 158M235.333 158.667L235.667 159.333L235.333 158.667z"/>
<path style="fill:#2b305a; stroke:none;" d="M114 159L115 160L114 159z"/>
<path style="fill:#9a9ec9; stroke:none;" d="M156 159L157 160L156 159z"/>
<path style="fill:#2b305a; stroke:none;" d="M182 159L183 160L182 159z"/>
<path style="fill:#9a9ec9; stroke:none;" d="M192 159L193 160L192 159M201 159L202 160L201 159z"/>
<path style="fill:#2b305a; stroke:none;" d="M212 159L213 160L212 159M222 159L223 160L222 159z"/>
<path style="fill:#9a9ec9; stroke:none;" d="M227 159L228 160L227 159z"/>
<path style="fill:#5e62f2; stroke:none;" d="M252 159L253 160L252 159z"/>
<path style="fill:#2b305a; stroke:none;" d="M261 159L262 160L261 159M115 160L116 161L115 160z"/>
<path style="fill:#9a9ec9; stroke:none;" d="M155 160L156 161L155 160z"/>
<path style="fill:#2b305a; stroke:none;" d="M183 160L184 161L183 160M192 160L193 161L192 160M202 160L203 161L202 160z"/>
<path style="fill:#9a9ec9; stroke:none;" d="M212 160L213 161L212 160z"/>
<path style="fill:#5e62f2; stroke:none;" d="M221 160L222 161L221 160M227 160L228 161L227 160z"/>
<path style="fill:#2b305a; stroke:none;" d="M236 160L237 161L236 160z"/>
<path style="fill:#9a9ec9; stroke:none;" d="M252 160L253 161L252 160M260 160L261 161L260 160M115 161L116 162L115 161z"/>
<path style="fill:#5e62f2; stroke:none;" d="M154 161L155 162L154 161z"/>
<path style="fill:#9a9ec9; stroke:none;" d="M193 161L194 162L193 161M202 161L203 162L202 161z"/>
<path style="fill:#2b305a; stroke:none;" d="M211 161L212 162L211 161z"/>
<path style="fill:#9a9ec9; stroke:none;" d="M220 161L221 162L220 161z"/>
<path style="fill:#2b305a; stroke:none;" d="M221 161L222 162L221 161M227.333 161.667L227.667 162.333L227.333 161.667z"/>
<path style="fill:#5e62f2; stroke:none;" d="M236 161L237 162L236 161z"/>
<path style="fill:#2b305a; stroke:none;" d="M251 161L252 162L251 161z"/>
<path style="fill:#5e62f2; stroke:none;" d="M260 161L261 162L260 161z"/>
<path style="fill:#2b305a; stroke:none;" d="M116 162L117 163L116 162M153 162L154 163L153 162M184 162L185 163L184 162M193 162L194 163L193 162M203 162L204 163L203 162z"/>
<path style="fill:#9a9ec9; stroke:none;" d="M211 162L212 163L211 162z"/>
<path style="fill:#5e62f2; stroke:none;" d="M220 162L221 163L220 162z"/>
<path style="fill:#9a9ec9; stroke:none;" d="M228.333 162.667L228.667 163.333L228.333 162.667M236.333 162.667L236.667 163.333L236.333 162.667z"/>
<path style="fill:#5e62f2; stroke:none;" d="M251 162L252 163L251 162z"/>
<path style="fill:#2b305a; stroke:none;" d="M260.333 162.667L260.667 163.333L260.333 162.667z"/>
<path style="fill:#9a9ec9; stroke:none;" d="M97 163L97 164L106 164L97 163M116 163L117 164L116 163z"/>
<path style="fill:#2b305a; stroke:none;" d="M147 163L148 164L147 163z"/>
<path style="fill:#5e62f2; stroke:none;" d="M153 163L154 164L153 163z"/>
<path style="fill:#9a9ec9; stroke:none;" d="M164 163L164 164L174 164L164 163M184.333 163.667L184.667 164.333L184.333 163.667z"/>
<path style="fill:#5e62f2; stroke:none;" d="M194 163L195 164L194 163M203 163L204 164L203 163z"/>
<path style="fill:#2b305a; stroke:none;" d="M210 163L211 164L210 163z"/>
<path style="fill:#9a9ec9; stroke:none;" d="M219 163L220 164L219 163z"/>
<path style="fill:#2b305a; stroke:none;" d="M220 163L221 164L220 163M237.333 163.667L237.667 164.333L237.333 163.667z"/>
<path style="fill:#9a9ec9; stroke:none;" d="M251 163L252 164L251 163z"/>
<path style="fill:#2b305a; stroke:none;" d="M265 163L265 164L271 164L265 163M334 163L334 164L341 164L334 163M376 163L376 164L383 164L376 163M416 163L416 164L425 164L416 163z"/>
<path style="fill:#5e62f2; stroke:none;" d="M95 164L96 165L95 164z"/>
<path style="fill:#2b305a; stroke:none;" d="M96 164L97 165L96 164z"/>
<path style="fill:#010101; stroke:none;" d="M97.1335 164.742C89.3497 168.16 90.869 195.341 104.866 189.397C112.792 186.03 111.073 158.621 97.1335 164.742z"/>
<path style="fill:#2b305a; stroke:none;" d="M106 164L108 166L106 164z"/>
<path style="fill:#9a9ec9; stroke:none;" d="M107 164L108 165L107 164z"/>
<path style="fill:#2b305a; stroke:none;" d="M117.333 164.667L117.667 165.333L117.333 164.667z"/>
<path style="fill:#5e62f2; stroke:none;" d="M137 164L138 165L137 164z"/>
<path style="fill:#2b305a; stroke:none;" d="M138 164L139 165L138 164z"/>
<path style="fill:#9a9ec9; stroke:none;" d="M153 164L154 165L153 164M162 164L161 166L162 164z"/>
<path style="fill:#2b305a; stroke:none;" d="M163 164L162 166L163 164z"/>
<path style="fill:#010101; stroke:none;" d="M164.318 165.028C157.778 169.391 160.483 197.779 173.682 188.972C180.222 184.609 177.517 156.221 164.318 165.028z"/>
<path style="fill:#2b305a; stroke:none;" d="M174 164C177.209 171.574 177.209 182.426 174 190C178.968 185.135 178.968 168.865 174 164z"/>
<path style="fill:#9a9ec9; stroke:none;" d="M175 164L176 165L175 164z"/>
<path style="fill:#2b305a; stroke:none;" d="M194 164L195 165L194 164M204 164L205 165L204 164z"/>
<path style="fill:#5e62f2; stroke:none;" d="M210 164L211 165L210 164M219 164L220 165L219 164z"/>
<path style="fill:#2b305a; stroke:none;" d="M228.333 164.667L228.667 165.333L228.333 164.667z"/>
<path style="fill:#9a9ec9; stroke:none;" d="M259 164L260 165L259 164z"/>
<path style="fill:#2b305a; stroke:none;" d="M271 164L271 198L272 198L271 164M306 164L307 165L306 164M321 164L321 167L322 167L321 164M331 164C329.224 167.69 329.007 170.929 329 175C328.995 177.965 328.774 181.046 329.109 183.996C329.86 190.621 338.483 193.546 343.682 189.258C348.742 185.084 347.334 167.116 342 164L342 165C345.937 169.202 347.501 184.063 342.566 188.258C337.643 192.444 330.771 188.841 330.109 182.996C329.776 180.055 329.963 176.956 330.004 174C330.055 170.266 330.433 167.74 333 165L331 164z"/>
<path style="fill:#010101; stroke:none;" d="M333.228 164.742C325.659 168.275 327.44 195.946 341.772 189.258C349.341 185.725 347.56 158.054 333.228 164.742z"/>
<path style="fill:#2b305a; stroke:none;" d="M373.667 164.333L374.333 164.667L373.667 164.333M383.667 164.333L384.333 164.667L383.667 164.333M415 164L415 188L416 188L415 164M94 165L95 166L94 165z"/>
<path style="fill:#9a9ec9; stroke:none;" d="M108 165L109 166L108 165z"/>
<path style="fill:#2b305a; stroke:none;" d="M136 165L137 166L136 165z"/>
<path style="fill:#9a9ec9; stroke:none;" d="M176 165L177 166L176 165z"/>
<path style="fill:#2b305a; stroke:none;" d="M185.333 165.667L185.667 166.333L185.333 165.667z"/>
<path style="fill:#5e62f2; stroke:none;" d="M195 165L196 166L195 165M204 165L205 166L204 165z"/>
<path style="fill:#2b305a; stroke:none;" d="M209.333 165.667L209.667 166.333L209.333 165.667z"/>
<path style="fill:#9a9ec9; stroke:none;" d="M210 165L211 166L210 165M218 165L219 166L218 165z"/>
<path style="fill:#2b305a; stroke:none;" d="M219 165L220 166L219 165z"/>
<path style="fill:#5e62f2; stroke:none;" d="M237 165L238 166L237 165z"/>
<path style="fill:#2b305a; stroke:none;" d="M250 165L251 166L250 165M259.333 165.667L259.667 166.333L259.333 165.667M305 165L306 166L305 165M372.333 165.667L372.667 166.333L372.333 165.667M385 165L386 166L385 165z"/>
<path style="fill:#5e62f2; stroke:none;" d="M93 166L94 167L93 166M108 166L109 167L108 166M117 166L118 167L117 166M135 166L136 167L135 166z"/>
<path style="fill:#2b305a; stroke:none;" d="M152.333 166.667L152.667 167.333L152.333 166.667z"/>
<path style="fill:#5e62f2; stroke:none;" d="M161 166L162 167L161 166z"/>
<path style="fill:#9a9ec9; stroke:none;" d="M196 166L197 167L196 166z"/>
<path style="fill:#2b305a; stroke:none;" d="M205 166L206 167L205 166M218 166L219 167L218 166z"/>
<path style="fill:#9a9ec9; stroke:none;" d="M229 166L230 167L229 166M237 166L238 167L237 166z"/>
<path style="fill:#2b305a; stroke:none;" d="M238 166L238 169L239 169L238 166z"/>
<path style="fill:#9a9ec9; stroke:none;" d="M250.333 166.667L250.667 167.333L250.333 166.667z"/>
<path style="fill:#2b305a; stroke:none;" d="M304 166L305 167L304 166M386 166C386 173.064 382.628 193.306 388 198L386 166M93.3333 167.667L93.6667 168.333L93.3333 167.667M108 167L108 173L109 173L108 167z"/>
<path style="fill:#9a9ec9; stroke:none;" d="M117 167L117 187L118 187L117 167z"/>
<path style="fill:#2b305a; stroke:none;" d="M135.333 167.667L135.667 168.333L135.333 167.667M161 167C161 173.911 158.76 184.868 164 190L161 167z"/>
<path style="fill:#5e62f2; stroke:none;" d="M185 167L185 188L186 188L185 167z"/>
<path style="fill:#2b305a; stroke:none;" d="M196 167L197 168L196 167z"/>
<path style="fill:#5e62f2; stroke:none;" d="M205 167L206 168L205 167z"/>
<path style="fill:#9a9ec9; stroke:none;" d="M209 167L210 168L209 167M217 167L218 168L217 167z"/>
<path style="fill:#2b305a; stroke:none;" d="M229 167L230 168L229 167z"/>
<path style="fill:#9a9ec9; stroke:none;" d="M258 167L259 168L258 167z"/>
<path style="fill:#2b305a; stroke:none;" d="M371 167L371 197L372 197L371 167z"/>
<path style="fill:#9a9ec9; stroke:none;" d="M92 168L92 186L93 186L92 168M109 168L109 186L110 186L109 168M134 168L133 198L134 198C136.188 190.598 137.005 175.162 134 168z"/>
<path style="fill:#5e62f2; stroke:none;" d="M152 168L152 187L153 187L152 168z"/>
<path style="fill:#9a9ec9; stroke:none;" d="M160 168L160 186L161 186L160 168M177 168L177 187L178 187L177 168M197 168L198 169L197 168z"/>
<path style="fill:#2b305a; stroke:none;" d="M206 168L207 169L206 168M208 168L209 169L208 168M217 168L218 169L217 168M249 168L250 169L249 168z"/>
<path style="fill:#5e62f2; stroke:none;" d="M258 168L259 169L258 168z"/>
<path style="fill:#2b305a; stroke:none;" d="M303 168L302 198C306.416 194.141 305.23 173.315 303 168M197 169L198 170L197 169z"/>
<path style="fill:#5e62f2; stroke:none;" d="M206 169L207 170L206 169z"/>
<path style="fill:#9a9ec9; stroke:none;" d="M208 169L209 170L208 169M216 169L217 170L216 169M230 169L231 170L230 169M238 169L239 170L238 169z"/>
<path style="fill:#5e62f2; stroke:none;" d="M249 169L250 170L249 169z"/>
<path style="fill:#2b305a; stroke:none;" d="M258.333 169.667L258.667 170.333L258.333 169.667z"/>
<path style="fill:#9a9ec9; stroke:none;" d="M198 170L199 171L198 170M206 170L207 171L206 170z"/>
<path style="fill:#2b305a; stroke:none;" d="M207 170L208 171L207 170M216 170L217 171L216 170z"/>
<path style="fill:#5e62f2; stroke:none;" d="M230 170L231 171L230 170z"/>
<path style="fill:#9a9ec9; stroke:none;" d="M249.333 170.667L249.667 171.333L249.333 170.667M257.333 170.667L257.667 171.333L257.333 170.667z"/>
<path style="fill:#2b305a; stroke:none;" d="M198 171L199 172L198 171z"/>
<path style="fill:#5e62f2; stroke:none;" d="M215 171L216 172L215 171z"/>
<path style="fill:#2b305a; stroke:none;" d="M230.333 171.667L230.667 172.333L230.333 171.667M239 171L240 172L239 171M248.333 171.667L248.667 172.333L248.333 171.667z"/>
<path style="fill:#5e62f2; stroke:none;" d="M199 172L200 173L199 172z"/>
<path style="fill:#9a9ec9; stroke:none;" d="M214 172L215 173L214 172z"/>
<path style="fill:#2b305a; stroke:none;" d="M215 172L216 173L215 172z"/>
<path style="fill:#9a9ec9; stroke:none;" d="M231 172L232 173L231 172z"/>
<path style="fill:#5e62f2; stroke:none;" d="M239 172L240 173L239 172M257 172L258 173L257 172z"/>
<path style="fill:#2b305a; stroke:none;" d="M93 173L93 181L94 181L93 173M199 173L200 174L199 173z"/>
<path style="fill:#5e62f2; stroke:none;" d="M214 173L215 174L214 173M231 173L232 174L231 173z"/>
<path style="fill:#9a9ec9; stroke:none;" d="M239 173L240 174L239 173z"/>
<path style="fill:#5e62f2; stroke:none;" d="M248 173L249 174L248 173z"/>
<path style="fill:#2b305a; stroke:none;" d="M257 173L258 174L257 173M200 174L202 177L200 174z"/>
<path style="fill:#9a9ec9; stroke:none;" d="M213 174L214 175L213 174z"/>
<path style="fill:#2b305a; stroke:none;" d="M214 174L215 175L214 174M231.333 174.667L231.667 175.333L231.333 174.667M240 174L241 175L240 174z"/>
<path style="fill:#9a9ec9; stroke:none;" d="M248 174L249 175L248 174M256.333 174.667L256.667 175.333L256.333 174.667M201 175L202 176L201 175z"/>
<path style="fill:#2b305a; stroke:none;" d="M213 175L214 176L213 175z"/>
<path style="fill:#9a9ec9; stroke:none;" d="M232.333 175.667L232.667 176.333L232.333 175.667z"/>
<path style="fill:#5e62f2; stroke:none;" d="M240 175L241 176L240 175z"/>
<path style="fill:#2b305a; stroke:none;" d="M247.333 175.667L247.667 176.333L247.333 175.667z"/>
<path style="fill:#9a9ec9; stroke:none;" d="M212 176L213 177L212 176M240.333 176.667L240.667 177.333L240.333 176.667z"/>
<path style="fill:#2b305a; stroke:none;" d="M256 176L257 177L256 176z"/>
<path style="fill:#9a9ec9; stroke:none;" d="M201 177L202 178L201 177z"/>
<path style="fill:#2b305a; stroke:none;" d="M213 177L214 178L213 177z"/>
<path style="fill:#5e62f2; stroke:none;" d="M232 177L233 178L232 177z"/>
<path style="fill:#2b305a; stroke:none;" d="M241.333 177.667L241.667 178.333L241.333 177.667z"/>
<path style="fill:#5e62f2; stroke:none;" d="M247 177L248 178L247 177z"/>
<path style="fill:#2b305a; stroke:none;" d="M200 178L201 179L200 178z"/>
<path style="fill:#9a9ec9; stroke:none;" d="M213 178L214 179L213 178z"/>
<path style="fill:#2b305a; stroke:none;" d="M232 178L233 179L232 178z"/>
<path style="fill:#9a9ec9; stroke:none;" d="M247 178L248 179L247 178M255 178L256 179L255 178z"/>
<path style="fill:#2b305a; stroke:none;" d="M108 179L108 184L109 184L108 179z"/>
<path style="fill:#9a9ec9; stroke:none;" d="M200 179L201 180L200 179z"/>
<path style="fill:#5e62f2; stroke:none;" d="M214 179L215 180L214 179z"/>
<path style="fill:#9a9ec9; stroke:none;" d="M233 179L234 180L233 179z"/>
<path style="fill:#5e62f2; stroke:none;" d="M241 179L242 180L241 179z"/>
<path style="fill:#2b305a; stroke:none;" d="M246 179L247 180L246 179M255.333 179.667L255.667 180.333L255.333 179.667M199 180L200 181L199 180z"/>
<path style="fill:#9a9ec9; stroke:none;" d="M214 180L215 181L214 180z"/>
<path style="fill:#2b305a; stroke:none;" d="M215 180L216 181L215 180z"/>
<path style="fill:#5e62f2; stroke:none;" d="M233 180L234 181L233 180z"/>
<path style="fill:#9a9ec9; stroke:none;" d="M241 180L242 181L241 180z"/>
<path style="fill:#5e62f2; stroke:none;" d="M246 180L247 181L246 180z"/>
<path style="fill:#9a9ec9; stroke:none;" d="M199 181L200 182L199 181z"/>
<path style="fill:#5e62f2; stroke:none;" d="M215 181L216 182L215 181z"/>
<path style="fill:#2b305a; stroke:none;" d="M233 181L234 182L233 181M242.333 181.667L242.667 182.333L242.333 181.667z"/>
<path style="fill:#9a9ec9; stroke:none;" d="M246 181L247 182L246 181M254 181L255 182L254 181z"/>
<path style="fill:#5e62f2; stroke:none;" d="M198 182L199 183L198 182z"/>
<path style="fill:#9a9ec9; stroke:none;" d="M207 182L206 184L207 182M215 182L217 184L215 182z"/>
<path style="fill:#2b305a; stroke:none;" d="M216 182L217 183L216 182z"/>
<path style="fill:#9a9ec9; stroke:none;" d="M234 182L235 183L234 182z"/>
<path style="fill:#5e62f2; stroke:none;" d="M254 182L255 183L254 182z"/>
<path style="fill:#2b305a; stroke:none;" d="M197 183L198 184L197 183z"/>
<path style="fill:#9a9ec9; stroke:none;" d="M198 183L199 184L198 183z"/>
<path style="fill:#2b305a; stroke:none;" d="M207 183L208 184L207 183z"/>
<path style="fill:#5e62f2; stroke:none;" d="M234 183L235 184L234 183M242 183L243 184L242 183z"/>
<path style="fill:#2b305a; stroke:none;" d="M245 183L246 184L245 183M254.333 183.667L254.667 184.333L254.333 183.667z"/>
<path style="fill:#5e62f2; stroke:none;" d="M197 184L198 185L197 184M206 184L207 185L206 184z"/>
<path style="fill:#9a9ec9; stroke:none;" d="M208 184L209 185L208 184z"/>
<path style="fill:#2b305a; stroke:none;" d="M217 184L218 185L217 184M234.333 184.667L234.667 185.333L234.333 184.667z"/>
<path style="fill:#9a9ec9; stroke:none;" d="M242 184L243 185L242 184z"/>
<path style="fill:#5e62f2; stroke:none;" d="M245 184L246 185L245 184z"/>
<path style="fill:#9a9ec9; stroke:none;" d="M253.333 184.667L253.667 185.333L253.333 184.667z"/>
<path style="fill:#2b305a; stroke:none;" d="M93.3333 185.667L93.6667 186.333L93.3333 185.667M108 185L106 190L108 185M196 185L197 186L196 185z"/>
<path style="fill:#9a9ec9; stroke:none;" d="M205 185L206 186L205 185z"/>
<path style="fill:#2b305a; stroke:none;" d="M208 185L209 186L208 185z"/>
<path style="fill:#9a9ec9; stroke:none;" d="M217 185L218 186L217 185M235.333 185.667L235.667 186.333L235.333 185.667z"/>
<path style="fill:#2b305a; stroke:none;" d="M243 185L245 188L243 185z"/>
<path style="fill:#9a9ec9; stroke:none;" d="M245 185L246 186L245 185z"/>
<path style="fill:#5e62f2; stroke:none;" d="M196 186L197 187L196 186z"/>
<path style="fill:#2b305a; stroke:none;" d="M205 186L206 187L205 186z"/>
<path style="fill:#9a9ec9; stroke:none;" d="M209 186L210 187L209 186z"/>
<path style="fill:#2b305a; stroke:none;" d="M218 186L219 187L218 186z"/>
<path style="fill:#5e62f2; stroke:none;" d="M253 186L254 187L253 186M93 187L94 188L93 187M117 187L118 188L117 187z"/>
<path style="fill:#2b305a; stroke:none;" d="M152 187L153 188L152 187M195 187L196 188L195 187z"/>
<path style="fill:#9a9ec9; stroke:none;" d="M204 187L205 188L204 187z"/>
<path style="fill:#2b305a; stroke:none;" d="M209 187L210 188L209 187z"/>
<path style="fill:#9a9ec9; stroke:none;" d="M218 187L219 188L218 187z"/>
<path style="fill:#5e62f2; stroke:none;" d="M235 187L236 188L235 187z"/>
<path style="fill:#9a9ec9; stroke:none;" d="M243 187L244 188L243 187z"/>
<path style="fill:#2b305a; stroke:none;" d="M253 187L254 188L253 187M321 187L321 191L322 191L321 187M94 188L97 190L97 189L94 188z"/>
<path style="fill:#9a9ec9; stroke:none;" d="M108 188L109 189L108 188z"/>
<path style="fill:#2b305a; stroke:none;" d="M117.333 188.667L117.667 189.333L117.333 188.667z"/>
<path style="fill:#9a9ec9; stroke:none;" d="M161 188L162 189L161 188M176 188L177 189L176 188z"/>
<path style="fill:#2b305a; stroke:none;" d="M185.333 188.667L185.667 189.333L185.333 188.667z"/>
<path style="fill:#9a9ec9; stroke:none;" d="M195 188L196 189L195 188z"/>
<path style="fill:#2b305a; stroke:none;" d="M204.333 188.667L204.667 189.333L204.333 188.667z"/>
<path style="fill:#9a9ec9; stroke:none;" d="M210 188L211 189L210 188z"/>
<path style="fill:#5e62f2; stroke:none;" d="M219 188L220 189L219 188z"/>
<path style="fill:#2b305a; stroke:none;" d="M235 188L236 189L235 188z"/>
<path style="fill:#9a9ec9; stroke:none;" d="M244 188L245 189L244 188M252.333 188.667L252.667 189.333L252.333 188.667z"/>
<path style="fill:#2b305a; stroke:none;" d="M416 188L417 189L416 188z"/>
<path style="fill:#9a9ec9; stroke:none;" d="M94 189L95 190L94 189M107 189L108 190L107 189M153 189L154 190L153 189M162 189L163 190L162 189M175 189L176 190L175 189M184.333 189.667L184.667 190.333L184.333 189.667z"/>
<path style="fill:#2b305a; stroke:none;" d="M194 189L195 190L194 189z"/>
<path style="fill:#9a9ec9; stroke:none;" d="M203 189L204 190L203 189z"/>
<path style="fill:#2b305a; stroke:none;" d="M210 189L211 190L210 189z"/>
<path style="fill:#9a9ec9; stroke:none;" d="M219 189L220 190L219 189z"/>
<path style="fill:#2b305a; stroke:none;" d="M220 189L221 190L220 189z"/>
<path style="fill:#9a9ec9; stroke:none;" d="M236 189L237 190L236 189z"/>
<path style="fill:#2b305a; stroke:none;" d="M353.333 189.667L353.667 190.333L353.333 189.667M417 189L417 190L426 192L417 189z"/>
<path style="fill:#9a9ec9; stroke:none;" d="M96.6667 190.333L97.3333 190.667L96.6667 190.333z"/>
<path style="fill:#5e62f2; stroke:none;" d="M98 190L98 191L105 191L98 190z"/>
<path style="fill:#9a9ec9; stroke:none;" d="M105 190L106 191L105 190M116 190L117 191L116 190z"/>
<path style="fill:#5e62f2; stroke:none;" d="M153 190L154 191L153 190z"/>
<path style="fill:#9a9ec9; stroke:none;" d="M163.667 190.333L164.333 190.667L163.667 190.333z"/>
<path style="fill:#5e62f2; stroke:none;" d="M165 190L165 191L173 191L165 190z"/>
<path style="fill:#9a9ec9; stroke:none;" d="M173.667 190.333L174.333 190.667L173.667 190.333M194 190L195 191L194 190z"/>
<path style="fill:#5e62f2; stroke:none;" d="M203 190L204 191L203 190z"/>
<path style="fill:#9a9ec9; stroke:none;" d="M211 190L212 191L211 190z"/>
<path style="fill:#5e62f2; stroke:none;" d="M220 190L221 191L220 190M236 190L237 191L236 190z"/>
<path style="fill:#2b305a; stroke:none;" d="M252 190L253 191L252 190M407.333 190.667L407.667 191.333L407.333 190.667M116 191L117 192L116 191M153 191L154 192L153 191M184 191L185 192L184 191z"/>
<path style="fill:#5e62f2; stroke:none;" d="M193 191L194 192L193 191z"/>
<path style="fill:#9a9ec9; stroke:none;" d="M202 191L203 192L202 191z"/>
<path style="fill:#2b305a; stroke:none;" d="M203 191L204 192L203 191M211 191L212 192L211 191M221 191L222 192L221 191M236.333 191.667L236.667 192.333L236.333 191.667M322.333 191.667L322.667 192.333L322.333 191.667z"/>
<path style="fill:#9a9ec9; stroke:none;" d="M115 192L116 193L115 192z"/>
<path style="fill:#5e62f2; stroke:none;" d="M154 192L155 193L154 192z"/>
<path style="fill:#9a9ec9; stroke:none;" d="M183 192L182 194L183 192z"/>
<path style="fill:#2b305a; stroke:none;" d="M192.333 192.667L192.667 193.333L192.333 192.667z"/>
<path style="fill:#9a9ec9; stroke:none;" d="M193 192L194 193L193 192z"/>
<path style="fill:#5e62f2; stroke:none;" d="M202 192L203 193L202 192z"/>
<path style="fill:#9a9ec9; stroke:none;" d="M212 192L213 193L212 192M221 192L222 193L221 192M237.333 192.667L237.667 193.333L237.333 192.667M251 192L252 193L251 192z"/>
<path style="fill:#2b305a; stroke:none;" d="M352 192L353 193L352 192M408.333 192.667L408.667 193.333L408.333 192.667M115 193L116 194L115 193M154 193L156 195L154 193z"/>
<path style="fill:#9a9ec9; stroke:none;" d="M155 193L156 194L155 193z"/>
<path style="fill:#2b305a; stroke:none;" d="M183 193L184 194L183 193M202 193L203 194L202 193M212 193L213 194L212 193M222 193L223 194L222 193z"/>
<path style="fill:#5e62f2; stroke:none;" d="M251 193L252 194L251 193z"/>
<path style="fill:#2b305a; stroke:none;" d="M323 193L324 194L323 193M351 193L349 196L351 193M425 193L425 198L426 198L425 193z"/>
<path style="fill:#9a9ec9; stroke:none;" d="M92 194L92 209L93 209L93 195L96 197L92 194z"/>
<path style="fill:#5e62f2; stroke:none;" d="M114 194L115 195L114 194z"/>
<path style="fill:#2b305a; stroke:none;" d="M182 194L183 195L182 194M191 194L192 195L191 194z"/>
<path style="fill:#9a9ec9; stroke:none;" d="M201 194L202 195L201 194M213 194L214 195L213 194M222 194L223 195L222 194z"/>
<path style="fill:#2b305a; stroke:none;" d="M237 194L238 195L237 194M251 194L252 195L251 194M324 194L325 195L324 194M409 194L410 195L409 194M93 195L93 201L94 201L93 195z"/>
<path style="fill:#5e62f2; stroke:none;" d="M113 195L114 196L113 195z"/>
<path style="fill:#2b305a; stroke:none;" d="M156 195L158 197L156 195z"/>
<path style="fill:#9a9ec9; stroke:none;" d="M157 195L158 196L157 195M180 195L181 196L180 195z"/>
<path style="fill:#2b305a; stroke:none;" d="M181 195L182 196L181 195z"/>
<path style="fill:#5e62f2; stroke:none;" d="M191 195L192 196L191 195z"/>
<path style="fill:#2b305a; stroke:none;" d="M201 195L202 196L201 195M213 195L215 198L213 195M223 195L224 198L225 198L223 195z"/>
<path style="fill:#5e62f2; stroke:none;" d="M238 195L239 196L238 195z"/>
<path style="fill:#9a9ec9; stroke:none;" d="M239 195L239 196L243 197L239 195M250 195L251 196L250 195z"/>
<path style="fill:#2b305a; stroke:none;" d="M325 195L326 196L325 195M410 195L413 197L410 195z"/>
<path style="fill:#9a9ec9; stroke:none;" d="M111 196L112 197L111 196z"/>
<path style="fill:#2b305a; stroke:none;" d="M112 196L113 197L112 196z"/>
<path style="fill:#5e62f2; stroke:none;" d="M158 196L159 197L158 196z"/>
<path style="fill:#9a9ec9; stroke:none;" d="M159 196L160 197L159 196M178 196L179 197L178 196z"/>
<path style="fill:#5e62f2; stroke:none;" d="M179 196L180 197L179 196z"/>
<path style="fill:#2b305a; stroke:none;" d="M190.333 196.667L190.667 197.333L190.333 196.667z"/>
<path style="fill:#9a9ec9; stroke:none;" d="M200 196L199 198L200 196M214 196L215 197L214 196M223.333 196.667L223.667 197.333L223.333 196.667z"/>
<path style="fill:#5e62f2; stroke:none;" d="M250 196L251 197L250 196z"/>
<path style="fill:#2b305a; stroke:none;" d="M326.667 196.333L327.333 196.667L326.667 196.333M347.667 196.333L348.333 196.667L347.667 196.333M96 197L97 198L96 197z"/>
<path style="fill:#5e62f2; stroke:none;" d="M97 197L98 198L97 197z"/>
<path style="fill:#9a9ec9; stroke:none;" d="M98.6667 197.333L99.3333 197.667L98.6667 197.333M106 197L106 198L109 198L106 197z"/>
<path style="fill:#5e62f2; stroke:none;" d="M109 197L110 198L109 197z"/>
<path style="fill:#2b305a; stroke:none;" d="M110 197L111 198L110 197M126 197L127 198L126 197M134 197L135 198L134 197M160 197L161 198L160 197z"/>
<path style="fill:#5e62f2; stroke:none;" d="M161 197L162 198L161 197z"/>
<path style="fill:#9a9ec9; stroke:none;" d="M162.667 197.333L163.333 197.667L162.667 197.333M174.667 197.333L175.333 197.667L174.667 197.333z"/>
<path style="fill:#5e62f2; stroke:none;" d="M176 197L177 198L176 197z"/>
<path style="fill:#2b305a; stroke:none;" d="M177 197L178 198L177 197z"/>
<path style="fill:#9a9ec9; stroke:none;" d="M191 197L192 198L191 197z"/>
<path style="fill:#2b305a; stroke:none;" d="M200 197L201 198L200 197z"/>
<path style="fill:#9a9ec9; stroke:none;" d="M215 197L216 198L215 197z"/>
<path style="fill:#2b305a; stroke:none;" d="M241 197L242 198L241 197M250.333 197.667L250.667 198.333L250.333 197.667M328 197L328 198L331 198L328 197M344 197L344 198L347 198L344 197M370 197L371 198L370 197M414 197L414 198L417 198L414 197z"/>
<path style="fill:#9a9ec9; stroke:none;" d="M241 198L242 199L241 198M249.333 198.667L249.667 199.333L249.333 198.667z"/>
<path style="fill:#2b305a; stroke:none;" d="M240 199L241 200L240 199z"/>
<path style="fill:#9a9ec9; stroke:none;" d="M240 200L241 201L240 200z"/>
<path style="fill:#2b305a; stroke:none;" d="M249 200L250 201L249 200z"/>
<path style="fill:#5e62f2; stroke:none;" d="M239 201L240 202L239 201z"/>
<path style="fill:#9a9ec9; stroke:none;" d="M248 201L249 202L248 201z"/>
<path style="fill:#2b305a; stroke:none;" d="M236.667 202.333L237.333 202.667L236.667 202.333z"/>
<path style="fill:#5e62f2; stroke:none;" d="M238 202L239 203L238 202M248 202L249 203L248 202M230 203L230 204L235 204L230 203z"/>
<path style="fill:#9a9ec9; stroke:none;" d="M235.667 203.333L236.333 203.667L235.667 203.333M247 203L248 204L247 203z"/>
<path style="fill:#5e62f2; stroke:none;" d="M229 204L230 205L229 204z"/>
<path style="fill:#2b305a; stroke:none;" d="M247 204L248 205L247 204z"/>
<path style="fill:#9a9ec9; stroke:none;" d="M229 205L229 210L230 210L229 205M246 205L247 206L246 205M245 206L243 209L245 206z"/>
<path style="fill:#2b305a; stroke:none;" d="M245 207L246 208L245 207M244 208L245 209L244 208M84 209L84 210L93 210L84 209z"/>
<path style="fill:#9a9ec9; stroke:none;" d="M241 209L242 210L241 209z"/>
<path style="fill:#5e62f2; stroke:none;" d="M242 209L243 210L242 209z"/>
</svg>
